<svg xmlns="http://www.w3.org/2000/svg" viewBox="-1 0 512 512"><path fill="#1273EB" d="M413.281 168.5V244c0 9.676 15 9.676 15 0v-75.5c0-9.676-15-9.676-15 0zm0 0M450.16 251.5a7.5 7.5 0 007.5-7.5v-75.5c0-9.676-15-9.676-15 0V244c0 4.14 3.36 7.5 7.5 7.5zm0 0M261.898 89c-4.14 0-7.5 3.36-7.5 7.5v233a7.5 7.5 0 1015 0v-233c0-4.14-3.359-7.5-7.5-7.5zm0 0M188.262 89a7.5 7.5 0 00-7.5 7.5v233a7.5 7.5 0 1015 0v-233c0-4.14-3.36-7.5-7.5-7.5zm0 0M226.148 89a7.5 7.5 0 00-7.5 7.5v233a7.5 7.5 0 1015 0v-233c0-4.14-3.359-7.5-7.5-7.5zm0 0M43.117 408.82h91.781c9.672 0 9.672-15 0-15h-91.78c-9.677 0-9.677 15 0 15zm0 0M43.117 440.625h91.781c9.672 0 9.672-15 0-15h-91.78c-9.677 0-9.677 15 0 15zm0 0M43.117 472.434h91.781c9.672 0 9.672-15 0-15h-91.78c-9.677 0-9.677 15 0 15zm0 0M58.844 152.113c-9.653 0-9.668 15 0 15 9.648 0 9.668-15 0-15zm0 0M89.008 152.113c-9.653 0-9.668 15 0 15 9.652 0 9.668-15 0-15zm0 0M119.176 152.113c-9.653 0-9.668 15 0 15 9.652 0 9.668-15 0-15zm0 0M58.844 185.504c-9.653 0-9.668 15 0 15 9.648 0 9.668-15 0-15zm0 0M89.008 185.504c-9.653 0-9.668 15 0 15 9.652 0 9.668-15 0-15zm0 0M119.176 185.504c-9.653 0-9.668 15 0 15 9.652 0 9.668-15 0-15zm0 0M58.844 218.895c-9.653 0-9.668 15 0 15 9.648 0 9.668-15 0-15zm0 0M89.008 218.895c-9.653 0-9.668 15 0 15 9.652 0 9.668-15 0-15zm0 0M119.176 218.895c-9.653 0-9.668 15 0 15 9.652 0 9.668-15 0-15zm0 0M58.844 252.285c-9.653 0-9.668 15 0 15 9.648 0 9.668-15 0-15zm0 0M89.008 252.285c-9.653 0-9.668 15 0 15 9.652 0 9.668-15 0-15zm0 0M119.176 252.285c-9.653 0-9.668 15 0 15 9.652 0 9.668-15 0-15zm0 0M58.844 285.676c-9.653 0-9.668 15 0 15 9.648 0 9.668-15 0-15zm0 0M89.008 285.676c-9.653 0-9.668 15 0 15 9.652 0 9.668-15 0-15zm0 0M119.176 285.676c-9.653 0-9.668 15 0 15 9.652 0 9.668-15 0-15zm0 0M58.844 319.066c-9.653 0-9.668 15 0 15 9.648 0 9.668-15 0-15zm0 0M89.008 319.066c-9.653 0-9.668 15 0 15 9.652 0 9.668-15 0-15zm0 0M119.176 319.066c-9.653 0-9.668 15 0 15 9.652 0 9.668-15 0-15zm0 0M373.824 327.445c4.145 0 7.5-3.355 7.5-7.5v-20.89c0-9.676-15-9.676-15 0v20.89c0 4.145 3.356 7.5 7.5 7.5zm0 0M336.473 376.445a7.5 7.5 0 007.5-7.5V299.5c.007-10.074-14.957-10.223-15 0v69.445c0 4.145 3.355 7.5 7.5 7.5zm0 0M373.824 424a7.5 7.5 0 007.5-7.5v-68.445c0-9.676-15-9.676-15 0V416.5a7.5 7.5 0 007.5 7.5zm0 0M336.473 425.445a7.5 7.5 0 007.5-7.5v-20.89c0-9.676-15-9.676-15 0v20.89c0 4.145 3.355 7.5 7.5 7.5zm0 0M336.473 474.445a7.5 7.5 0 007.5-7.5v-20.89c0-9.676-15-9.676-15 0v20.89c0 4.145 3.355 7.5 7.5 7.5zm0 0M373.824 474.445c4.145 0 7.5-3.355 7.5-7.5v-20.89c0-9.676-15-9.676-15 0v20.89c0 4.145 3.356 7.5 7.5 7.5zm0 0"/><path fill="#1273EB" d="M510.563 126.992l-11-31a7.503 7.503 0 00-7.07-4.992H478.41l-34.37-57.832a7.506 7.506 0 00-6.45-3.668h-9.309v-22c0-9.676-15-9.676-15 0v22h-13.578a7.51 7.51 0 00-6.644 4.02L362.953 91H349.07c-3.172 0-6.004 2-7.066 4.992l-11 31c-1.695 4.781 2.078 10.008 7.066 10.008h11.446v69.344l-43.832-36.836V56.5c0-4.14-3.36-7.5-7.5-7.5h-19.715V7.5a7.5 7.5 0 00-7.5-7.5h-91.781c-4.141 0-7.5 3.36-7.5 7.5V49h-19.711a7.5 7.5 0 00-7.5 7.5v57.04h-15V39.546c0-5.414-5.98-9.145-10.856-6.707l-65.937 33a7.505 7.505 0 00-4.145 6.707v40.992H26.691a7.5 7.5 0 00-7.5 7.5v234.215H7.5a7.497 7.497 0 00-7.5 7.5V432c0 9.676 15 9.676 15 0v-61.746h148.016V497H15v-29c0-9.676-15-9.676-15 0v36.5a7.5 7.5 0 007.5 7.5h421.996c9.676 0 9.676-15 0-15h-9.887V268.75c0-2.215-.98-4.316-2.675-5.742l-18.77-15.778c.469-.976.738-2.07.738-3.23v-75.5c0-9.676-15-9.676-15 0v66.746l-19.386-16.293V137.5h112.53V497h-9.55c-9.676 0-9.676 15 0 15h17.05a7.5 7.5 0 007.5-7.5V137h11.446c4.977 0 8.758-5.242 7.07-10.008zM186.688 15h76.78v34h-76.78zM63.538 77.184l50.938-25.496v61.851H63.539zm-29.348 278.07V128.539h20.766c.355.05.715.09 1.082.09h65.938c.37 0 .73-.04 1.085-.09h20.766v226.715zM404.61 497h-98.925V262a7.5 7.5 0 00-7.5-7.5 7.5 7.5 0 00-7.5 7.5v235H178.016V362.754c0-4.145-3.356-7.5-7.5-7.5h-11.04V64h131.208v160a7.5 7.5 0 007.5 7.5 7.5 7.5 0 007.5-7.5v-34.898l98.925 83.14zm-.367-452.5h29.082L460.961 91h-81.074zm-55.55 77.5l5.68-16h132.823l5.68 16zm0 0"/><path fill="#1273EB" d="M450.418 276.5c-9.652 0-9.668 15 0 15 9.652 0 9.668-15 0-15zm0 0M450.418 312.7c-9.652 0-9.668 15 0 15 9.652 0 9.668-15 0-15zm0 0M450.418 348.898c-9.652 0-9.668 15 0 15 9.652 0 9.668-15 0-15zm0 0M450.418 385.102c-9.652 0-9.668 15 0 15 9.652 0 9.668-15 0-15zm0 0M450.418 421.3c-9.652 0-9.668 15 0 15 9.652 0 9.668-15 0-15zm0 0M450.418 457.5c-9.652 0-9.668 15 0 15 9.652 0 9.668-15 0-15zm0 0"/></svg>