<svg xmlns="http://www.w3.org/2000/svg" viewBox="0 0 64 64"><g><path fill="#1273EB" d="M62 45h-1v-7.59a10.39 10.39 0 00-3.74-8A10.54 10.54 0 0055 28l-.19-1H57a3 3 0 003-3v-2a3 3 0 00-3-3h-3.81l-1.1-5.55A8 8 0 0044.24 7H19.76a8 8 0 00-7.85 6.45L10.81 19H7a3 3 0 00-3 3v2a3 3 0 003 3h2.24l-.19 1a10.54 10.54 0 00-2.31 1.45 10.39 10.39 0 00-3.74 8V45H2a1 1 0 00-1 1v4a1 1 0 001 1h5v3a3 3 0 003 3h8a3 3 0 003-3v-3h22v3a3 3 0 003 3h8a3 3 0 003-3v-3h5a1 1 0 001-1v-4a1 1 0 00-1-1zm-5-24a1 1 0 011 1v2a1 1 0 01-1 1h-2.63l-.79-4zM44.24 9a6 6 0 014.46 2H15.3a6 6 0 014.46-2zM7 25a1 1 0 01-1-1v-2a1 1 0 011-1h3.42l-.79 4zm6.87-11.16a7.41 7.41 0 01.24-.84h35.78a7.41 7.41 0 01.24.84l2.64 13.4a10.55 10.55 0 00-2.18-.24H13.41a10.55 10.55 0 00-2.18.24zM5 37.41A8.4 8.4 0 0113.41 29h37.18A8.4 8.4 0 0159 37.41V45H41v-9a3 3 0 00-3-3H26a3 3 0 00-3 3v9H5zM39 37H25v-1a1 1 0 011-1h12a1 1 0 011 1zm-14 2h14v2H25zm0 4h14v2H25zm-6 11a1 1 0 01-1 1h-8a1 1 0 01-1-1v-3h10zm36 0a1 1 0 01-1 1h-8a1 1 0 01-1-1v-3h10zm6-5H3v-2h58z"/><path fill="#1273EB" d="M14 34c-3.92 0-7 2-7 4.5s3.08 4.5 7 4.5 7-2 7-4.5-3.08-4.5-7-4.5zm0 7c-2.95 0-5-1.32-5-2.5s2.05-2.5 5-2.5 5 1.32 5 2.5-2 2.5-5 2.5zM50 43c3.92 0 7-2 7-4.5S53.92 34 50 34s-7 2-7 4.5 3.08 4.5 7 4.5zm0-7c3 0 5 1.32 5 2.5S53 41 50 41s-5-1.32-5-2.5 2.05-2.5 5-2.5zM20.295 23.29l6.003-6.004 1.414 1.415-6.003 6.003zM28.291 23.293l6.004-6.003 1.414 1.414-6.003 6.003zM36.298 23.296l6.004-6.003 1.414 1.414-6.004 6.003z"/></g></svg>