<svg xmlns="http://www.w3.org/2000/svg" viewBox="0 0 512.204 512.204"><path fill="#1273EB" d="M328.945 285.952a10.066 10.066 0 00-2.92 7.07c0 2.64 1.06 5.21 2.92 7.07a10.055 10.055 0 007.07 2.93c2.64 0 5.21-1.061 7.08-2.93 1.86-1.86 2.92-4.44 2.92-7.07s-1.06-5.2-2.92-7.07a10.076 10.076 0 00-7.08-2.92c-2.63 0-5.21 1.06-7.07 2.92z"/><path fill="#1273EB" d="M505.875 475.27l-.631-.631-26.41-110.984c-11.297-47.474-53.27-80.63-102.069-80.63h-.746c-5.523 0-10 4.478-10 10s4.477 10 10 10h.746c39.497 0 73.468 26.836 82.612 65.261l18.888 79.374-85.167-85.167a10.001 10.001 0 00-7.071-2.929h-44.52a9.976 9.976 0 00-3.637.696c-24.768-14.305-53-21.875-81.768-21.875-28.828 0-56.987 7.551-81.782 21.87a9.986 9.986 0 00-3.623-.691h-44.52a10.001 10.001 0 00-7.071 2.929l-85.228 85.228 18.769-79.329c9.106-38.487 43.088-65.367 82.638-65.367h76.719c12.165 10.718 27.614 16.587 43.972 16.587 17.798 0 34.53-6.931 47.116-19.516a10.003 10.003 0 002.929-7.071v-51.309c21.825-13.673 37.694-36.002 42.762-62.142h7.776c18.748 0 34-15.252 34-34v-5.393c0-18.748-15.252-34-34-34h-6.044V94.64c0-52.129-42.41-94.538-94.538-94.538s-94.538 42.409-94.538 94.538v11.542h-6.044c-18.748 0-34 15.252-34 34v5.393c0 18.748 15.252 34 34 34h7.776c5.068 26.14 20.937 48.469 42.762 62.142v41.309h-70.646c-23.524 0-46.64 8.037-65.09 22.631-18.45 14.595-31.594 35.239-37.01 58.131L6.956 474.644l-.626.626a21.514 21.514 0 00-4.677 23.513 21.511 21.511 0 0019.933 13.319h67.707a10 10 0 008.606-4.907l33.561-56.713 3.071 1.975a27.14 27.14 0 009.576 3.817c-5.809 14.143-9.021 29.616-9.021 45.828 0 5.522 4.477 10 10 10s10-4.478 10-10c0-24.257 8.596-46.542 22.899-63.975l42.451 42.452a41.412 41.412 0 00-6.003 21.523c0 5.522 4.477 10 10 10s10-4.478 10-10c0-11.947 9.72-21.668 21.668-21.668s21.668 9.721 21.668 21.668c0 5.522 4.477 10 10 10s10-4.478 10-10c0-7.87-2.195-15.237-6.003-21.523l42.451-42.451c14.303 17.433 22.899 39.718 22.899 63.975 0 5.522 4.477 10 10 10s10-4.478 10-10c0-16.212-3.212-31.685-9.021-45.828a27.14 27.14 0 009.576-3.817l3.071-1.975 33.561 56.713a10 10 0 008.606 4.907h67.707a21.512 21.512 0 0019.933-13.319 21.509 21.509 0 00-4.674-23.514zM370.557 140.182v5.393c0 7.72-6.28 14-14 14h-6.044v-33.393h6.044c7.72 0 14 6.281 14 14zM181.437 94.64c0-41.101 33.438-74.538 74.538-74.538s74.538 33.438 74.538 74.538v11.542h-26.261c-5.24 0-10.267-1.396-14.652-4.013a129.44 129.44 0 0015.706-13.39c3.905-3.905 3.905-10.237 0-14.143-3.905-3.904-10.237-3.904-14.142 0-20.341 20.342-47.387 31.545-76.155 31.545h-33.571V94.64zm-40.044 50.935v-5.393c0-7.72 6.28-14 14-14h6.044v33.393h-6.044c-7.72 0-14-6.28-14-14zm40.045 15.992v-35.385h33.571c19.801 0 38.914-4.476 56.183-12.95 9.022 8.366 20.688 12.95 33.061 12.95h26.261v35.365c0 41.101-33.438 74.538-74.538 74.538-41.095.001-74.528-33.427-74.538-74.518zm74.537 94.519a94.161 94.161 0 0030.044-4.896v37.457c-17.297 14.594-42.792 14.594-60.089 0V251.19a94.172 94.172 0 0030.045 4.896zm69.92 120.372l-8.111 13.877a27.289 27.289 0 00-2.639 6.165c-17.476-9.81-37.616-15.415-59.043-15.415s-41.567 5.605-59.043 15.415a27.282 27.282 0 00-2.639-6.164l-8.109-13.874c21.268-11.834 45.247-18.076 69.791-18.076 24.495 0 48.542 6.247 69.793 18.072zM83.591 492.102H21.586c-.288 0-1.053 0-1.456-.973s.138-1.514.342-1.717l56.839-56.839 26.076 26.076-19.796 33.453zm49.956-64.054a9.998 9.998 0 00-14.013 3.319l-5.63 9.514-22.449-22.449 38.866-38.866h34.64l12.194 20.864a7.397 7.397 0 01-.745 8.508l-21.433 25.261c-2.387 2.813-6.527 3.428-9.63 1.436l-11.8-7.587zm101.032 38.389l-42.451-42.452c17.433-14.303 39.718-22.899 63.975-22.899s46.542 8.596 63.975 22.899l-42.452 42.452a41.411 41.411 0 00-21.523-6.002 41.403 41.403 0 00-21.524 6.002zm144.079-38.39l-11.8 7.586c-3.103 1.996-7.243 1.378-9.629-1.435l-21.433-25.261a7.399 7.399 0 01-.745-8.509l12.194-20.863h34.64l38.866 38.866-22.449 22.449-5.63-9.514a9.998 9.998 0 00-14.014-3.319zm113.416 63.083c-.403.973-1.167.973-1.456.973h-62.005l-19.796-33.452 26.076-26.076 56.839 56.839c.204.202.745.743.342 1.716z"/></svg>