<svg xmlns="http://www.w3.org/2000/svg" viewBox="0 0 496 496"><path fill="#FFA502" d="M423.36 72.635A248 248 0 00247.995 0a8 8 0 00-8 8v64a8 8 0 0016 0V16.136c128.054 4.416 228.282 111.805 223.866 239.859-4.416 128.054-111.805 228.282-239.859 223.866C111.948 475.444 11.72 368.055 16.136 240.002A231.993 231.993 0 0183.947 83.953a8 8 0 00-11.312-11.312c-96.849 96.851-96.846 253.876.005 350.725s253.876 96.846 350.725-.005 96.846-253.877-.005-350.726z"/><path fill="#FFA502" d="M247.995 216a31.573 31.573 0 00-16.152 4.536l-113.96-113.96a8 8 0 00-11.312 11.312l113.96 113.96A31.573 31.573 0 00215.995 248c0 17.673 14.327 32 32 32 17.673 0 32-14.327 32-32s-14.327-32-32-32zm0 48c-8.837 0-16-7.163-16-16s7.163-16 16-16 16 7.163 16 16-7.163 16-16 16z"/></svg>