<svg xmlns="http://www.w3.org/2000/svg" viewBox="0 0 72 32" width="72" height="32"><path fill="#F79E1B" d="M8.898 19.086a4.64 4.64 0 00-1.065-.501 3.773 3.773 0 00-1.16-.179 2.989 2.989 0 00-.727.083c-.2.047-.392.128-.565.24a1.176 1.176 0 00-.365.374.942.942 0 00-.13.492.772.772 0 00.112.436.922.922 0 00.327.296c.162.09.336.157.517.2.228.058.459.103.691.135l.548.074c.318.045.632.115.94.21.29.087.567.22.816.396.238.167.436.386.579.64.152.288.227.61.217.936a2.18 2.18 0 01-.256 1.072c-.17.31-.406.577-.692.783-.306.22-.65.384-1.013.484a4.418 4.418 0 01-1.221.165 5.354 5.354 0 01-.835-.07 5.847 5.847 0 01-.87-.2 5.166 5.166 0 01-.782-.335 3.477 3.477 0 01-.692-.466l.692-1.023c.15.135.314.252.491.348.407.223.848.38 1.304.462.231.043.465.064.7.065a3.16 3.16 0 00.722-.074c.207-.045.405-.123.587-.23.157-.094.292-.22.396-.371.099-.148.15-.323.147-.5a.77.77 0 00-.434-.71 4.08 4.08 0 00-1.357-.367l-.617-.087a4.806 4.806 0 01-.87-.204 2.505 2.505 0 01-.752-.401 1.932 1.932 0 01-.535-.649 2.036 2.036 0 01-.217-.94 2.215 2.215 0 01.248-1.059c.163-.307.393-.574.674-.78.3-.218.637-.38.995-.479a4.342 4.342 0 011.218-.165 5.008 5.008 0 011.57.23c.46.15.899.361 1.303.628l-.639 1.04zm4.326.61a2.57 2.57 0 011.04.208c.308.134.584.333.808.584.232.264.41.57.526.902.131.373.196.767.191 1.162v.445h-4.034c.029.221.1.436.208.631.094.168.22.316.37.436.144.112.308.196.483.248.18.053.368.08.556.078.28-.002.556-.054.817-.152.273-.103.527-.25.753-.436l.586.85c-.307.27-.666.473-1.056.596-.382.115-.78.172-1.178.17a2.999 2.999 0 01-1.122-.205 2.548 2.548 0 01-1.443-1.48 3.236 3.236 0 01-.205-1.176 3.28 3.28 0 01.2-1.163c.123-.336.312-.644.557-.906.245-.254.541-.453.87-.584.34-.14.705-.212 1.073-.213v.005zm-.021 1.058a1.541 1.541 0 00-.566.096c-.162.06-.31.153-.434.274a1.454 1.454 0 00-.292.435 2.022 2.022 0 00-.16.54h2.817a1.7 1.7 0 00-.435-.988 1.26 1.26 0 00-.935-.362l.005.005zm6.3-1.059c.39-.003.777.07 1.138.218.338.144.636.366.87.65l-.761.81a2.279 2.279 0 00-.6-.436 1.65 1.65 0 00-.704-.144 1.575 1.575 0 00-.635.126c-.191.09-.362.22-.5.38a1.651 1.651 0 00-.34.548 2.11 2.11 0 000 1.415c.076.205.192.393.34.553.143.153.316.275.509.357a1.68 1.68 0 001.374-.043c.22-.103.422-.24.6-.405l.734.84c-.244.284-.55.506-.895.65-.36.147-.746.221-1.135.217-.402.006-.8-.068-1.174-.218a2.612 2.612 0 01-1.478-1.52 3.263 3.263 0 010-2.273 2.61 2.61 0 011.465-1.507 3.04 3.04 0 011.187-.222l.004.005zm8.108 3.275c.01.384-.064.764-.218 1.115-.13.293-.323.553-.565.762-.236.199-.51.347-.804.436a3.172 3.172 0 01-1.861 0 2.297 2.297 0 01-.809-.436 2.116 2.116 0 01-.565-.762 2.658 2.658 0 01-.213-1.115v-3.135h1.191v3.048c-.006.227.028.452.1.667.06.164.157.313.283.435.123.116.272.201.435.248.34.103.703.103 1.043 0a1.07 1.07 0 00.718-.683c.073-.215.108-.44.104-.667v-3.048h1.191l-.03 3.135zm4.326-3.274c.164-.001.329.012.49.039.15.024.295.063.436.117l-.283 1.176a1.681 1.681 0 00-.435-.148 2.31 2.31 0 00-.465-.052 1.376 1.376 0 00-.522.096 1.103 1.103 0 00-.408.283 1.333 1.333 0 00-.266.461c-.066.2-.099.409-.095.619v2.992H29.18v-5.444h1.174v.614c.167-.25.4-.45.674-.575.285-.125.593-.187.904-.183l.005.005zm3.978 0a2.57 2.57 0 011.039.208c.308.134.584.333.808.584.24.262.426.568.548.902.131.373.196.767.191 1.162v.445h-4.06c.029.221.1.436.209.631.093.168.219.316.369.436.144.112.308.196.483.248.18.053.368.08.556.078.28-.002.556-.054.818-.152.272-.103.527-.25.752-.436l.59.845c-.306.27-.666.473-1.056.597-.382.115-.779.172-1.178.17a3.001 3.001 0 01-1.122-.205 2.549 2.549 0 01-1.443-1.48 3.236 3.236 0 01-.204-1.177c-.004-.396.063-.79.2-1.162a2.66 2.66 0 01.548-.906c.245-.255.541-.454.87-.584.341-.14.708-.21 1.077-.209l.005.005zm-.022 1.058a1.541 1.541 0 00-.565.096c-.163.06-.311.153-.435.274a1.453 1.453 0 00-.291.435 2.026 2.026 0 00-.161.54h2.826a1.7 1.7 0 00-.435-.988 1.26 1.26 0 00-.943-.362l.004.005zm7.7-3.593c.343-.001.686.037 1.021.113.319.072.627.184.918.331.278.141.537.319.77.527.226.202.42.437.578.697l-1.07.714a2.61 2.61 0 00-2.24-1.145 2.948 2.948 0 00-1.12.209 2.607 2.607 0 00-.87.592 2.728 2.728 0 00-.587.915 3.354 3.354 0 000 2.351c.132.341.332.652.587.915.246.254.542.456.87.592.356.142.737.213 1.12.21.884.019 1.717-.41 2.214-1.142l1.043.767a3.43 3.43 0 01-.6.67 3.734 3.734 0 01-.739.523 3.964 3.964 0 01-.895.322 4.654 4.654 0 01-2.679-.2 3.838 3.838 0 01-2.173-2.178 4.584 4.584 0 010-3.292 3.838 3.838 0 012.173-2.178 4.433 4.433 0 011.679-.313zm7 2.517a3.04 3.04 0 011.164.218c.345.138.66.342.927.6.262.259.47.567.613.907a3.031 3.031 0 010 2.273 2.763 2.763 0 01-1.54 1.507c-.749.291-1.58.291-2.33 0a2.81 2.81 0 01-.926-.601 2.78 2.78 0 01-.626-.889 3.031 3.031 0 010-2.273c.141-.34.348-.647.609-.906.266-.26.58-.464.926-.6.377-.153.78-.229 1.187-.223l-.005-.013zm0 1.12c-.231-.003-.46.04-.675.126a1.59 1.59 0 00-.895.905c-.174.456-.174.96 0 1.416a1.597 1.597 0 00.896.906c.433.17.914.17 1.347 0 .41-.162.738-.484.904-.893.174-.456.174-.96 0-1.415a1.625 1.625 0 00-.904-.906 1.76 1.76 0 00-.67-.127l-.004-.013zm6.49-1.12a2.055 2.055 0 011.709.801v-3.396h1.187v8.191h-1.187v-.653c-.19.242-.43.44-.704.58a2.17 2.17 0 01-1.005.217 2.645 2.645 0 01-2.504-1.725 3.258 3.258 0 010-2.3c.131-.336.328-.644.578-.905a2.646 2.646 0 011.926-.806v-.004zm.144 1.12a1.636 1.636 0 00-.687.139 1.539 1.539 0 00-.835.927 2.067 2.067 0 000 1.35c.07.204.18.392.322.553.143.16.318.287.513.375.434.18.922.18 1.356 0 .196-.085.372-.21.518-.366.141-.15.253-.326.33-.518a2.071 2.071 0 000-1.385 1.654 1.654 0 00-.335-.549 1.557 1.557 0 00-.517-.366 1.641 1.641 0 00-.665-.148v-.013zm6.695-1.12c.357-.003.711.068 1.04.21.308.133.584.332.808.583.231.264.41.57.526.901.131.374.196.767.191 1.163v.444h-4.012c.028.222.099.437.208.632a1.448 1.448 0 00.852.684c.181.053.369.079.557.078.28-.002.556-.054.817-.153.273-.102.527-.25.752-.435l.592.845c-.308.27-.667.473-1.057.596-.382.115-.78.173-1.178.17a3 3 0 01-1.122-.204 2.549 2.549 0 01-1.443-1.481 3.236 3.236 0 01-.205-1.176 3.28 3.28 0 01.2-1.163c.123-.336.313-.644.557-.906.245-.254.541-.453.87-.583.334-.13.689-.195 1.047-.192v-.013zm3.135 5.583V25h.109v-.057h-.283V25h.122v.274l.052-.013zm.543 0v-.33h-.087l-.1.226-.1-.227h-.087v.331h.061v-.248l.092.213h.06l.092-.213v.248h.07zm-3.7-4.525a1.54 1.54 0 00-.565.096c-.162.06-.31.153-.434.274a1.453 1.453 0 00-.292.436 2.03 2.03 0 00-.16.54h2.817a1.7 1.7 0 00-.435-1.002 1.26 1.26 0 00-.93-.33v-.014z"/><path fill="#EB001B" d="M12.796 14.056h-1.33V7.27l-2.404 5.97h-1.4L5.266 7.336v6.72H3.927V5.812h2.04l2.395 5.892 2.391-5.892h2.04l.004 8.244zm7 0h-1.23v-.675a2.176 2.176 0 01-.73.6 2.25 2.25 0 01-1.04.223 2.741 2.741 0 01-2-.836c-.26-.271-.463-.59-.6-.941a3.38 3.38 0 010-2.386c.137-.35.34-.67.6-.941a2.741 2.741 0 012-.836c.36-.01.716.068 1.04.226.284.146.533.353.73.605v-.679h1.23v5.64zm-2.856-4.63a1.697 1.697 0 00-.713.144 1.594 1.594 0 00-.53.388 1.741 1.741 0 00-.335.575 2.146 2.146 0 000 1.402c.074.212.19.407.339.575.148.165.328.297.53.387.45.19.958.19 1.409 0a1.61 1.61 0 00.534-.379c.152-.165.27-.36.348-.57a2.154 2.154 0 000-1.437 1.743 1.743 0 00-.348-.57 1.618 1.618 0 00-1.234-.515zm8.495.401a3.385 3.385 0 00-.752-.318 4.394 4.394 0 00-.487-.117 2.877 2.877 0 00-.522-.048 1.411 1.411 0 00-.787.187.562.562 0 00-.278.488.406.406 0 00.074.248c.052.07.119.126.196.165.093.048.193.083.295.105.113.026.235.05.366.07l.582.087a3.04 3.04 0 011.44.54c.357.265.56.69.543 1.136.002.259-.058.514-.174.745a1.68 1.68 0 01-.5.562 2.443 2.443 0 01-.805.379c-.354.094-.72.14-1.087.135a5.65 5.65 0 01-.504-.026 4.201 4.201 0 01-1.274-.327 3.042 3.042 0 01-.639-.37l.57-.923c.105.081.215.155.33.222.13.073.264.134.405.183.162.056.33.098.5.126.205.033.413.05.621.048.33.018.659-.046.957-.187a.562.562 0 00.326-.501.466.466 0 00-.235-.397 1.845 1.845 0 00-.74-.226l-.586-.078a2.707 2.707 0 01-1.426-.55 1.39 1.39 0 01-.491-1.105 1.714 1.714 0 01.165-.758c.107-.225.267-.42.465-.57.22-.163.467-.285.73-.358a3.43 3.43 0 01.97-.126c.422-.002.843.05 1.252.157.364.09.712.237 1.03.435l-.53.967zm5.835-.296h-2.174v2.456c0 .166.027.331.082.488.04.121.106.232.192.327a.727.727 0 00.282.187c.113.04.232.061.352.06.201 0 .4-.04.587-.112.192-.072.375-.162.548-.27l.487.984c-.24.16-.496.293-.765.396a2.65 2.65 0 01-.96.166 2.011 2.011 0 01-1.488-.536 2.263 2.263 0 01-.539-1.664V9.535h-1.117V8.416h1.117V6.71h1.235v1.707h2.174l-.013 1.115zm3.782-1.267c.37-.005.738.068 1.078.213.32.139.607.345.84.605.24.274.426.592.547.937.135.387.201.796.196 1.206V11.682h-4.187c.03.23.104.452.217.654a1.54 1.54 0 00.883.692c.188.056.383.084.578.083.297 0 .592-.053.87-.157.281-.102.544-.249.778-.436l.613.871a3.07 3.07 0 01-1.096.619c-.396.12-.807.18-1.221.178a3.104 3.104 0 01-1.187-.191 2.637 2.637 0 01-1.509-1.537 3.358 3.358 0 01-.213-1.22c-.005-.411.064-.82.205-1.206.127-.35.324-.67.578-.94.244-.261.54-.467.87-.606.367-.151.762-.225 1.16-.218v-.004zM35.03 9.36c-.2-.004-.399.03-.587.1a1.269 1.269 0 00-.434.288c-.127.126-.23.273-.305.435-.086.18-.146.373-.178.57h2.922a1.743 1.743 0 00-.47-1.023 1.303 1.303 0 00-.948-.37zm6.957-1.097c.17-.001.34.012.508.039.149.026.295.067.435.122l-.296 1.22a1.737 1.737 0 00-.434-.153 2.431 2.431 0 00-.483-.052 1.428 1.428 0 00-.539.1 1.143 1.143 0 00-.435.296c-.124.14-.218.302-.278.479a1.92 1.92 0 00-.1.64v3.105h-1.23V8.4h1.217v.636c.172-.253.41-.455.687-.584.295-.127.614-.19.935-.183l.013-.004zm4.204 0c.405-.004.807.073 1.182.226.358.147.674.379.922.675l-.787.84a2.36 2.36 0 00-.622-.435 1.737 1.737 0 00-.73-.152 1.637 1.637 0 00-.657.13c-.2.085-.38.212-.53.37-.152.166-.27.36-.348.571-.17.474-.17.993 0 1.468.078.21.196.405.348.57.15.16.33.285.53.37.208.089.432.133.657.131.261.002.52-.054.757-.165.228-.112.438-.26.621-.436l.757.85a2.483 2.483 0 01-.93.674c-.374.154-.775.231-1.179.227a3.148 3.148 0 01-1.217-.227 2.72 2.72 0 01-1.535-1.563 3.38 3.38 0 010-2.356 2.72 2.72 0 011.535-1.564c.387-.146.8-.214 1.213-.2l.013-.004zm8.639 5.792H53.6v-.675a2.176 2.176 0 01-.731.6 2.25 2.25 0 01-1.04.223 2.741 2.741 0 01-2-.836c-.26-.271-.463-.59-.6-.941a3.38 3.38 0 010-2.386c.137-.35.34-.67.6-.941a2.741 2.741 0 012-.836c.36-.01.717.068 1.04.226.284.146.534.353.73.605v-.679h1.23v5.64zm-2.852-4.63a1.698 1.698 0 00-.714.144 1.596 1.596 0 00-.53.388 1.743 1.743 0 00-.335.575 2.146 2.146 0 000 1.402c.074.211.188.406.335.575.148.165.329.296.53.387.451.189.958.189 1.41 0 .201-.088.383-.217.534-.379.152-.165.27-.359.348-.57a2.146 2.146 0 000-1.437 1.715 1.715 0 00-.348-.57 1.617 1.617 0 00-1.226-.515h-.005zm7.517-1.158c.17-.001.34.012.508.04.149.025.295.066.435.121l-.296 1.22a1.737 1.737 0 00-.434-.153 2.44 2.44 0 00-.483-.052 1.424 1.424 0 00-.539.1 1.144 1.144 0 00-.435.296c-.124.14-.218.302-.278.48-.07.205-.103.422-.1.64v3.104h-1.23V8.404h1.23v.636c.173-.255.412-.459.691-.588.295-.127.614-.19.935-.183h-.004zm4.034 0c.36-.01.716.068 1.04.226.284.147.533.353.73.606V5.577h1.23v8.479H65.3v-.675a2.177 2.177 0 01-.73.6 2.25 2.25 0 01-1.04.223 2.742 2.742 0 01-2-.836 2.855 2.855 0 01-.613-.941 3.38 3.38 0 010-2.386c.137-.35.34-.67.6-.941a2.741 2.741 0 012-.836l.013.004zm4.435 5.27a.362.362 0 01.339.217.353.353 0 01-.078.392.377.377 0 01-.261.11.365.365 0 01-.34-.219.357.357 0 01.196-.47.37.37 0 01.148-.03h-.004zm0 .64a.266.266 0 00.195-.083.283.283 0 00-.086-.457.269.269 0 00-.11 0 .284.284 0 00-.108 0 .279.279 0 00-.087.435.283.283 0 00.087.061.278.278 0 00.113.04l-.004.004zm0-.436a.152.152 0 01.1.03c.023.02.036.049.035.08a.092.092 0 01-.026.069.13.13 0 01-.079.035l.109.126h-.087l-.1-.126h-.03v.126h-.07v-.335l.148-.005zm-.083.061v.087h.083c.014.004.03.004.043 0a.04.04 0 000-.035.035.035 0 000-.034.082.082 0 00-.043 0l-.083-.018zm-4.226-4.355a1.698 1.698 0 00-.713.144 1.596 1.596 0 00-.53.388 1.743 1.743 0 00-.335.574 2.146 2.146 0 000 1.403c.074.211.188.406.335.575.148.164.329.296.53.387.451.188.958.188 1.409 0 .202-.088.384-.217.535-.379.167-.173.296-.379.378-.605a2.15 2.15 0 000-1.437 1.718 1.718 0 00-.348-.57 1.618 1.618 0 00-.535-.38 1.693 1.693 0 00-.7-.122l-.026.022z"/></svg>