<svg xmlns="http://www.w3.org/2000/svg" viewBox="0 0 72 32" width="72" height="32"><path fill="#1B548E" fill-rule="evenodd" d="M30.463 16.769l-2.784 7.499-.296-1.524c-.694-1.868-2.195-3.828-3.943-4.623l2.547 9.63 3.01-.001 4.477-10.981h-3.01zM32.85 27.762l1.779-11.004h2.844l-1.78 11.004h-2.844zM46.009 17.03a7.033 7.033 0 00-2.549-.464c-2.813 0-4.79 1.494-4.807 3.631-.018 1.583 1.413 2.466 2.49 2.992 1.11.538 1.48.883 1.477 1.364-.01.738-.888 1.074-1.704 1.074-1.137 0-1.743-.166-2.675-.575l-.37-.176-.397 2.463c.665.306 1.894.572 3.17.586 2.986 0 4.929-1.477 4.952-3.758.012-1.256-.748-2.206-2.39-2.99-.992-.51-1.605-.849-1.596-1.366.001-.456.514-.945 1.63-.945a4.975 4.975 0 012.128.423l.254.126.387-2.386zm7.294-.26h-2.197c-.681 0-1.192.194-1.492.913l-4.222 10.082h2.987s.488-1.357.599-1.654l3.64.007c.089.383.347 1.648.347 1.648h2.641L53.303 16.77zm-3.507 7.09c.236-.631 1.133-3.075 1.133-3.075-.018.03.233-.637.378-1.049l.19.949.66 3.175h-2.361z" clip-rule="evenodd"/><path fill="#E89F3E" fill-rule="evenodd" d="M25.097 16.763H20.51l-.027.19c3.566.91 5.92 3.148 6.9 5.794l-.997-5.057c-.172-.696-.67-.902-1.289-.927z" clip-rule="evenodd"/><path fill="#1B548E" fill-rule="evenodd" d="M11.906 14.104h-1.814L8 4.683l2.004-.335 1.432 7.373 3.646-7.275h1.925l-5.101 9.658zM21.338 11.024h-4.325c-.118 1.31.491 1.882 1.523 1.882.866 0 1.627-.321 2.445-.837l-.006 1.31a5.22 5.22 0 01-2.82.823c-1.883 0-3.127-1.073-2.753-3.499.337-2.188 1.852-3.511 3.61-3.511 2.023 0 2.696 1.519 2.402 3.428-.021.14-.061.307-.076.404zm-2.546-2.676c-.67 0-1.295.53-1.59 1.631h2.678c.05-1.046-.278-1.63-1.087-1.63zm5.365 1.854l-.595 3.86h-1.674l1.037-6.731h1.423l.001 1.352c.567-.78 1.337-1.436 2.392-1.491l.01 1.658a3.718 3.718 0 00-2.594 1.352zm2.572 3.86l1.037-6.731h1.674l-1.037 6.731H26.73zm2.062-7.86c-.558 0-.944-.39-.858-.948a1.169 1.169 0 011.154-.975c.545 0 .929.404.84.975-.085.558-.592.948-1.136.948zm5.286-.711c-.572 0-.918.25-1.01.85l-.153.99h1.284l-.001 1.365h-1.493l-.827 5.367h-1.66l.827-5.367h-.977l.21-1.365h.977l.178-1.157c.23-1.491 1.265-2.049 2.646-2.049.293 0 .512.028.675.056l.013 1.366a4.25 4.25 0 00-.69-.056zm.018 8.572l1.037-6.732h1.674l-1.037 6.731h-1.674zm2.062-7.861c-.558 0-.944-.39-.858-.948a1.169 1.169 0 011.154-.975c.545 0 .929.404.84.975-.085.558-.592.948-1.136.948zm7.14 4.822h-4.325c-.118 1.31.491 1.882 1.524 1.882.865 0 1.626-.321 2.445-.837l-.007 1.31a5.22 5.22 0 01-2.82.823c-1.883 0-3.126-1.073-2.753-3.499.337-2.188 1.853-3.511 3.61-3.511 2.024 0 2.696 1.519 2.402 3.428-.021.14-.061.307-.076.404zm-2.545-2.676c-.67 0-1.296.53-1.59 1.631h2.678c.049-1.046-.28-1.63-1.088-1.63zm7.504 5.714l.004-.933c-.562.571-1.295 1.073-2.23 1.073-1.41 0-2.378-1.045-2.028-3.317.386-2.509 1.94-3.624 3.502-3.624.642 0 1.141.112 1.524.25l.5-3.246L51.243 4l-1.55 10.063h-1.437zm.56-5.17c-.389-.196-.695-.293-1.267-.293-.879 0-1.63.71-1.858 2.188-.201 1.31.262 1.923 1.002 1.923.613 0 1.143-.362 1.676-.92l.446-2.898zm6.005 5.234a5.985 5.985 0 01-2.04-.338l1.102-7.147 1.299-.2-.477 3.092c.38-.337.907-.675 1.552-.675 1.078 0 1.8.802 1.536 2.512-.29 1.88-1.45 2.756-2.971 2.756zm.936-4.15c-.423 0-.847.286-1.223.666l-.356 2.312c.25.095.423.137.782.137.803 0 1.364-.485 1.543-1.647.152-.982-.175-1.467-.746-1.467zm5.024 4.361c-.648 1.256-1.29 1.647-2.272 1.647-.222 0-.346-.021-.457-.053l-.008-1.045c.163.042.337.074.58.074.37 0 .692-.169.908-.539l.168-.337-1.075-5.026 1.347-.168.624 3.631 1.69-3.557h1.257l-2.762 5.373z" clip-rule="evenodd"/></svg>