<svg xmlns="http://www.w3.org/2000/svg" fill="none" viewBox="0 0 24 24" width="30" height="30"><g clip-path="url(#clip0)"><path fill="url(#paint0_linear)" d="M12 0C5.373 0 0 5.372 0 12s5.373 12 12 12c6.628 0 12-5.372 12-12S18.628 0 12 0zm0 23.4C5.704 23.4.6 18.296.6 12S5.705.6 12 .6 23.4 5.704 23.4 12 18.296 23.4 12 23.4z"/><path fill="#333" d="M23.486 12c0 6.343-5.143 11.486-11.486 11.486C5.657 23.486.515 18.343.515 12 .515 5.657 5.657.514 12 .514 18.343.514 23.486 5.657 23.486 12z"/><path fill="url(#paint1_radial)" d="M23.4 12c0 6.296-5.104 11.4-11.4 11.4S.6 18.296.6 12 5.705.6 12 .6 23.4 5.704 23.4 12z"/><path fill="url(#paint2_linear)" d="M19.643 12a7.643 7.643 0 11-15.286 0 7.643 7.643 0 0115.286 0z"/><path fill="#000" d="M12.306 4.15l.794-2.104v2.105h.603V1.137h-.906l-.824 2.158h.007l-.824-2.158h-.906V4.15h.603V2.046l.794 2.105h.66zm8.275 1.352l-1.03 1.502 1.618-.796.439.526-2.547 1.28-.514-.624.987-1.488-.006-.008-1.642.703-.52-.619 1.717-2.273.439.526-1.075 1.448 1.663-.742.471.565z"/><path fill="#333" d="M6.663 4.926c-.243-.235-.617-.306-.97-.088a.67.67 0 00.005-.45c-.152-.277-.205-.311-.329-.416-.405-.34-.83-.05-1.135.313l-1.47 1.752 2.312 1.94 1.55-1.848c.355-.422.41-.84.037-1.203zm-2.99.845l.883-1.052c.102-.122.333-.117.482.008.163.137.164.331.054.462L4.22 6.23l-.547-.458zm2.436.175l-.92 1.098-.577-.485.927-1.106c.105-.125.34-.161.497-.029.178.15.195.377.073.522z"/><path fill="url(#paint3_radial)" d="M12.313 4.034l.793-2.104v2.104h.604V1.02h-.907l-.824 2.158h.008l-.824-2.158h-.907v3.014h.603V1.93l.794 2.104h.66z"/><path fill="url(#paint4_radial)" d="M20.587 5.3l-1.03 1.502 1.619-.796.438.526-2.546 1.28-.515-.624.987-1.488-.006-.008-1.642.703-.52-.619 1.717-2.274.44.527-1.076 1.448 1.663-.742.471.565z"/><path fill="url(#paint5_radial)" d="M6.555 4.867c-.242-.236-.617-.307-.969-.089a.671.671 0 00.004-.45c-.152-.276-.204-.31-.33-.415-.404-.34-.83-.05-1.133.313L2.656 5.978l2.312 1.94 1.55-1.848c.354-.423.41-.841.037-1.203zm-2.99.845l.883-1.052c.102-.122.333-.118.482.007.164.138.164.332.054.463L4.11 6.17l-.547-.458zm2.437.175L5.08 6.984 4.503 6.5l.928-1.106c.105-.125.339-.161.497-.03.178.15.196.377.074.523z"/><path fill="url(#paint6_radial)" d="M4.612 12a7.389 7.389 0 1114.777 0 7.389 7.389 0 01-14.777 0z"/><path fill="url(#paint7_radial)" d="M4.824 12a7.176 7.176 0 1114.353 0 7.176 7.176 0 01-14.353 0z"/><path fill="url(#paint8_radial)" d="M4.813 12H12V4.813A7.187 7.187 0 004.813 12z"/><path fill="url(#paint9_radial)" d="M12 12v7.188A7.187 7.187 0 0019.187 12H12z"/><path fill="url(#paint10_radial)" d="M19.247 11.872h-7.12v-7.12h-.254v7.12h-7.12v.255h7.12v7.12h.255v-7.12h7.119v-.255z"/><path fill="url(#paint11_linear)" d="M12.127 4.955a7.047 7.047 0 016.92 6.917h.126a7.174 7.174 0 00-7.046-7.045v.128z"/><path fill="#C2D7E8" d="M4.942 11.871a7.056 7.056 0 016.927-6.927v-.128a7.183 7.183 0 00-7.055 7.055h.128z"/><path fill="url(#paint12_linear)" d="M11.873 19.046a7.046 7.046 0 01-6.919-6.919h-.127a7.174 7.174 0 007.046 7.046v-.127z"/><path fill="#12404F" d="M19.046 12.127a7.047 7.047 0 01-6.918 6.918v.128a7.174 7.174 0 007.045-7.046h-.127z"/><path fill="url(#paint13_linear)" d="M11.736 4.816v6.917H4.821v.136h7.052V4.816h-.137z"/><path fill="url(#paint14_linear)" d="M11.725 19.106v-6.833H4.878v-.134h6.981v6.967h-.134z"/><path fill="url(#paint15_linear)" d="M12.274 19.106v-6.833h6.832v-.134H12.14v6.967h.135z"/><path fill="url(#paint16_linear)" d="M12.274 4.877v6.833h6.832v.135H12.14V4.877h.135z"/></g><defs><radialGradient id="paint1_radial" cx="0" cy="0" r="1" gradientTransform="matrix(17.0487 0 0 17.0491 -.15 .794)" gradientUnits="userSpaceOnUse"><stop stop-color="#fff"/><stop offset=".306" stop-color="#A8A8A8"/><stop offset=".646" stop-color="#4F4F4F"/><stop offset=".885" stop-color="#161616"/><stop offset="1"/></radialGradient><radialGradient id="paint3_radial" cx="0" cy="0" r="1" gradientTransform="matrix(40.9656 0 0 40.9664 -3.211 -.943)" gradientUnits="userSpaceOnUse"><stop stop-color="#fff"/><stop offset=".31" stop-color="#FDFDFD"/><stop offset=".451" stop-color="#F6F6F6"/><stop offset=".557" stop-color="#E9E9E9"/><stop offset=".646" stop-color="#D7D7D7"/><stop offset=".724" stop-color="#BFBFBF"/><stop offset=".794" stop-color="#A2A2A2"/><stop offset=".859" stop-color="gray"/><stop offset=".92" stop-color="#575757"/><stop offset=".975" stop-color="#2B2B2B"/><stop offset="1" stop-color="#141414"/></radialGradient><radialGradient id="paint4_radial" cx="0" cy="0" r="1" gradientTransform="matrix(40.9691 0 0 40.9699 -3.213 -.943)" gradientUnits="userSpaceOnUse"><stop stop-color="#fff"/><stop offset=".31" stop-color="#FDFDFD"/><stop offset=".451" stop-color="#F6F6F6"/><stop offset=".557" stop-color="#E9E9E9"/><stop offset=".646" stop-color="#D7D7D7"/><stop offset=".724" stop-color="#BFBFBF"/><stop offset=".794" stop-color="#A2A2A2"/><stop offset=".859" stop-color="gray"/><stop offset=".92" stop-color="#575757"/><stop offset=".975" stop-color="#2B2B2B"/><stop offset="1" stop-color="#141414"/></radialGradient><radialGradient id="paint5_radial" cx="0" cy="0" r="1" gradientTransform="matrix(41.0004 0 0 41.0012 -3.216 -.955)" gradientUnits="userSpaceOnUse"><stop stop-color="#fff"/><stop offset=".31" stop-color="#FDFDFD"/><stop offset=".451" stop-color="#F6F6F6"/><stop offset=".557" stop-color="#E9E9E9"/><stop offset=".646" stop-color="#D7D7D7"/><stop offset=".724" stop-color="#BFBFBF"/><stop offset=".794" stop-color="#A2A2A2"/><stop offset=".859" stop-color="gray"/><stop offset=".92" stop-color="#575757"/><stop offset=".975" stop-color="#2B2B2B"/><stop offset="1" stop-color="#141414"/></radialGradient><radialGradient id="paint6_radial" cx="0" cy="0" r="1" gradientTransform="matrix(11.0497 0 0 11.0499 4.125 4.737)" gradientUnits="userSpaceOnUse"><stop stop-color="#E6E6E6"/><stop offset=".104" stop-color="#D6D6D6"/><stop offset=".307" stop-color="#ADADAD"/><stop offset=".588" stop-color="#6C6C6C"/><stop offset=".933" stop-color="#121212"/><stop offset="1"/></radialGradient><radialGradient id="paint7_radial" cx="0" cy="0" r="1" gradientTransform="matrix(16.0694 0 0 16.0697 7.148 6.223)" gradientUnits="userSpaceOnUse"><stop stop-color="#fff"/><stop offset=".344" stop-color="#FDFDFD"/><stop offset=".481" stop-color="#F6F6F6"/><stop offset=".582" stop-color="#EAEAEA"/><stop offset=".665" stop-color="#D8D8D8"/><stop offset=".737" stop-color="#C2C2C2"/><stop offset=".802" stop-color="#A6A6A6"/><stop offset=".86" stop-color="#848484"/><stop offset=".913" stop-color="#5F5F5F"/><stop offset=".949" stop-color="#404040"/><stop offset=".957" stop-color="#404040"/><stop offset="1"/></radialGradient><radialGradient id="paint8_radial" cx="0" cy="0" r="1" gradientTransform="matrix(28.4591 0 0 28.4596 2.43 .132)" gradientUnits="userSpaceOnUse"><stop offset=".169" stop-color="#fff"/><stop offset=".196" stop-color="#E0EFF7"/><stop offset=".241" stop-color="#B2D9EC"/><stop offset=".287" stop-color="#8BC5E2"/><stop offset=".335" stop-color="#6BB5DA"/><stop offset=".384" stop-color="#52A9D4"/><stop offset=".436" stop-color="#41A0CF"/><stop offset=".491" stop-color="#369BCD"/><stop offset=".556" stop-color="#39C"/><stop offset=".606" stop-color="#3396C8"/><stop offset=".655" stop-color="#328EBC"/><stop offset=".705" stop-color="#3180A8"/><stop offset=".754" stop-color="#2F6D8C"/><stop offset=".803" stop-color="#2D5468"/><stop offset=".851" stop-color="#2A373D"/><stop offset=".871" stop-color="#292929"/></radialGradient><radialGradient id="paint9_radial" cx="0" cy="0" r="1" gradientTransform="matrix(28.4585 0 0 28.4591 2.43 .131)" gradientUnits="userSpaceOnUse"><stop offset=".169" stop-color="#fff"/><stop offset=".196" stop-color="#E0EFF7"/><stop offset=".241" stop-color="#B2D9EC"/><stop offset=".287" stop-color="#8BC5E2"/><stop offset=".335" stop-color="#6BB5DA"/><stop offset=".384" stop-color="#52A9D4"/><stop offset=".436" stop-color="#41A0CF"/><stop offset=".491" stop-color="#369BCD"/><stop offset=".556" stop-color="#39C"/><stop offset=".606" stop-color="#3396C8"/><stop offset=".655" stop-color="#328EBC"/><stop offset=".705" stop-color="#3180A8"/><stop offset=".754" stop-color="#2F6D8C"/><stop offset=".803" stop-color="#2D5468"/><stop offset=".851" stop-color="#2A373D"/><stop offset=".871" stop-color="#292929"/></radialGradient><radialGradient id="paint10_radial" cx="0" cy="0" r="1" gradientTransform="matrix(10.8379 0 0 10.8381 4.276 4.876)" gradientUnits="userSpaceOnUse"><stop stop-color="#E6E6E6"/><stop offset=".104" stop-color="#D6D6D6"/><stop offset=".307" stop-color="#ADADAD"/><stop offset=".588" stop-color="#6C6C6C"/><stop offset=".933" stop-color="#121212"/><stop offset="1"/></radialGradient><linearGradient id="paint0_linear" x1="-1.757" x2="23.705" y1="-1.294" y2="23.31" gradientUnits="userSpaceOnUse"><stop stop-color="#DFF4FF"/><stop offset=".098" stop-color="#D6EAF5"/><stop offset=".268" stop-color="#BFD0D9"/><stop offset=".488" stop-color="#98A5AC"/><stop offset=".747" stop-color="#646B6E"/><stop offset="1" stop-color="#2B2B2B"/></linearGradient><linearGradient id="paint2_linear" x1="20.762" x2="4.545" y1="20.467" y2="4.796" gradientUnits="userSpaceOnUse"><stop stop-color="#DFF4FF"/><stop offset=".086" stop-color="#D6EAF5"/><stop offset=".233" stop-color="#BED0D9"/><stop offset=".424" stop-color="#96A4AC"/><stop offset=".652" stop-color="#5F686D"/><stop offset=".907" stop-color="#1A1D1E"/><stop offset="1"/></linearGradient><linearGradient id="paint11_linear" x1="10.579" x2="21.148" y1="2.17" y2="12.383" gradientUnits="userSpaceOnUse"><stop stop-color="#F0F4FF"/><stop offset=".109" stop-color="#EBEFF9"/><stop offset=".247" stop-color="#DCE0EA"/><stop offset=".403" stop-color="#C4C7CF"/><stop offset=".57" stop-color="#A2A4AB"/><stop offset=".747" stop-color="#76777C"/><stop offset=".929" stop-color="#414243"/><stop offset="1" stop-color="#2B2B2B"/></linearGradient><linearGradient id="paint12_linear" x1="2" x2="12.57" y1="10.793" y2="21.006" gradientUnits="userSpaceOnUse"><stop stop-color="#F0F4FF"/><stop offset=".109" stop-color="#EBEFF9"/><stop offset=".247" stop-color="#DCE0EA"/><stop offset=".403" stop-color="#C4C7CF"/><stop offset=".57" stop-color="#A2A4AB"/><stop offset=".747" stop-color="#76777C"/><stop offset=".929" stop-color="#414243"/><stop offset="1" stop-color="#2B2B2B"/></linearGradient><linearGradient id="paint13_linear" x1="7.113" x2="12.594" y1="7.151" y2="12.447" gradientUnits="userSpaceOnUse"><stop stop-color="#C2D7E8"/><stop offset=".134" stop-color="#BACFE1"/><stop offset=".343" stop-color="#A4BACD"/><stop offset=".6" stop-color="#8098AC"/><stop offset=".894" stop-color="#4E697F"/><stop offset="1" stop-color="#3A566D"/></linearGradient><linearGradient id="paint14_linear" x1="4.369" x2="14.832" y1="8.449" y2="18.559" gradientUnits="userSpaceOnUse"><stop stop-color="#F0F4FF"/><stop offset=".097" stop-color="#E8EBF6"/><stop offset=".257" stop-color="#D1D4DD"/><stop offset=".459" stop-color="#ABAEB5"/><stop offset=".695" stop-color="#78797D"/><stop offset=".958" stop-color="#363637"/><stop offset="1" stop-color="#2B2B2B"/></linearGradient><linearGradient id="paint15_linear" x1="12.08" x2="15.751" y1="12.199" y2="15.746" gradientUnits="userSpaceOnUse"><stop stop-color="#D9DEF0"/><stop offset=".123" stop-color="#D4DAEC"/><stop offset=".263" stop-color="#C7CFE2"/><stop offset=".411" stop-color="#B0BCD1"/><stop offset=".566" stop-color="#90A1B8"/><stop offset=".725" stop-color="#677F99"/><stop offset=".885" stop-color="#355674"/><stop offset=".972" stop-color="#173D5D"/></linearGradient><linearGradient id="paint16_linear" x1="8.326" x2="18.778" y1="4.612" y2="14.711" gradientUnits="userSpaceOnUse"><stop stop-color="#F0F4FF"/><stop offset=".109" stop-color="#EBEFF9"/><stop offset=".247" stop-color="#DCE0EA"/><stop offset=".403" stop-color="#C4C7CF"/><stop offset=".57" stop-color="#A2A4AB"/><stop offset=".747" stop-color="#76777C"/><stop offset=".929" stop-color="#414243"/><stop offset="1" stop-color="#2B2B2B"/></linearGradient><clipPath id="clip0"><path fill="#fff" d="M0 0h24v24H0z"/></clipPath></defs></svg>