<svg xmlns="http://www.w3.org/2000/svg" fill="none" viewBox="0 0 24 24" width="30" height="30"><g clip-path="url(#clip0)"><path fill="#FFC107" d="M19.816.999C17.85.4 14.969 0 12 0 9.03 0 6.15.4 4.184.999 1.55 1.799 1 2.149 1 3.894c0 9.173 3.736 14.274 7.042 17.33C9.782 22.831 11.39 24 12 24c.61 0 2.219-1.165 3.958-2.776C19.264 18.168 23 13.066 23 3.894c0-1.746-.55-2.096-3.184-2.896V1z"/><path fill="#FFD54F" d="M12.005 23.44c-.26-.02-1.473-.686-3.563-2.62C3.825 16.544 1.58 11.01 1.58 3.893c0-1.326.172-1.568 2.779-2.362C6.363.922 9.218.56 12 .56l.005 22.88z"/><path fill="#212121" d="M15.157 20.415c-1.608 1.491-2.723 2.243-3.157 2.435-.434-.192-1.55-.944-3.157-2.435-4.498-4.16-6.685-9.565-6.685-16.522 0-1.02 0-1.105 2.375-1.827 1.949-.593 4.742-.947 7.467-.947 2.725 0 5.518.354 7.467.947 2.375.722 2.375.806 2.375 1.828 0 6.956-2.187 12.36-6.685 16.521z"/><path fill="#424242" d="M12 22.85c-.434-.192-1.55-.944-3.157-2.435-4.498-4.16-6.685-9.565-6.685-16.522 0-1.02 0-1.105 2.375-1.827 1.949-.593 4.742-.947 7.467-.947 0 0 .434 21.539 0 21.731z"/><path fill="#FFCA28" d="M3.576 3.754l.448-.166v1.998l.746-.267v.424l-1.194.413V3.754zM5.846 3.08l-.42.101-.597 2.536.473-.136.128-.627.43-.118.145.595.468-.112-.627-2.239zM5.5 4.547l.14-.759.15.696-.29.063zM6.663 5.282l.411-.073-.027-1.315.448 1.434.457-1.413-.032 1.166.444-.046V2.642l-.448.055-.403 1.434-.416-1.311-.439.094s0 2.374.005 2.367zM9.847 3.64c.117-.086.233-.184.233-.51a.568.568 0 00-.61-.577c-.304.015-.753.06-.753.06v2.371s.714-.054.8-.063c.083-.009.601-.107.601-.789-.002 0 .005-.37-.271-.492zm-.687-.665s.173-.009.21-.009c.036-.002.262-.004.262.197 0 .202-.138.306-.24.315-.101.009-.235.009-.235.009l.003-.512zm.28 1.522c-.102.02-.276.022-.276.022V3.91s.215-.013.258-.013c.04 0 .25.03.25.251 0 .223-.128.33-.232.347v.001zM11.086 2.427c-.42 0-.764.393-.764 1.222 0 .966.344 1.224.764 1.224.423 0 .765-.408.765-1.224 0-.816-.342-1.222-.765-1.222zm0 2.04c-.178 0-.323-.171-.323-.805 0-.545.145-.805.323-.805.181 0 .326.267.326.805 0 .536-.145.804-.326.804zM13.194 3.776s.355-.124.355-.63a.641.641 0 00-.583-.663l-.85-.03V4.83h.433l.01-.985h.167l.375 1.005.482.02-.389-1.095zm-.321-.324h-.324V2.88h.263c.116 0 .303.065.303.253 0 .189-.102.32-.242.32zM14.743 4.086l-.249-.015v-.414l.7.055v.556c0 .113 0 .688-.65.688s-.823-.64-.823-1.32.228-1.142.724-1.142c.696 0 .752.728.752.728l-.45.077s-.065-.374-.262-.374c-.194 0-.327.339-.327.761 0 .421.095.848.362.848.225 0 .228-.258.228-.31 0-.053-.005-.138-.005-.138zM15.521 2.637v2.376l.43.065.009-1.044.561.072-.01 1.036.462.078V2.862l-.452-.087v.907l-.554-.079v-.9l-.446-.066zM17.323 2.93v2.358l.46.083V3.015l-.46-.086zM18.154 3.084v2.36l.427.126V4.103l.644 1.635.371.138V3.48l-.445-.144v1.27l-.581-1.425-.416-.097zM19.963 3.612V5.99l.446.173v-2.4l-.446-.151z"/><path fill="#FFCA28" fill-rule="evenodd" d="M13.488 7.74a1.503 1.503 0 00-.565-.156 1.223 1.223 0 00-.58.091c-.173.082-.603.248-1.049.523-.446.278-.906.663-1.148 1.181-.169.349-.317.706-.444 1.07-.077.229-.106.357-.158.475-.05.118-.133.239-.206.374a1.063 1.063 0 00-.142.457 4.642 4.642 0 01-.073.58c-.03.176-.07.352-.12.524-.04.142-.095.304-.14.488-.053.197-.085.4-.097.603-.012.219-.038.44-.083.643a2.546 2.546 0 01-.182.555c-.077.162-.106.304-.137.437a1.166 1.166 0 01-.154.388 11.77 11.77 0 01-.317.439 7.04 7.04 0 01-.317.389c-.083.094-.128.208-.11.306.018.096.1.177.266.208.17.03.32.004.432-.057a.443.443 0 00.222-.265c.027-.109.034-.262.052-.42.016-.154.04-.314.105-.433l.126-.257a.476.476 0 01.142-.142c.043-.024.084-.046.143-.11.061-.061.16-.238.246-.44.088-.198.16-.421.168-.574.009-.153.031-.273.065-.374.03-.09.073-.176.127-.256.05-.076.081-.162.129-.225a.191.191 0 01.205-.09c.1.016.127.066.136.132.007.063-.002.14.03.207.029.068.06.14.104.206.047.07.114.126.194.16a.364.364 0 01.192.185.225.225 0 01-.032.24 2.428 2.428 0 00-.218.335c-.073.131-.13.267-.134.354-.005.088 0 .221-.025.358a.634.634 0 01-.195.381 1.87 1.87 0 00-.282.305.494.494 0 00-.107.229.253.253 0 00.073.188c.057.059.15.107.299.116a.656.656 0 00.348-.064.42.42 0 00.188-.22.397.397 0 00.024-.232c-.011-.063-.031-.12-.027-.186a.844.844 0 01.059-.221c.03-.078.063-.16.077-.236a1.306 1.306 0 01.28-.603c.097-.116.154-.219.201-.308.048-.093.084-.174.145-.248.062-.074.086-.112.11-.122.022-.009.044.009.099.043.056.036.065.07.052.108-.014.037-.05.078-.087.133-.06.081-.12.16-.185.238-.074.097-.156.197-.203.271a.4.4 0 00-.073.256c.01.084.064.153.188.168.124.018.22.023.29.007.067-.015.11-.052.124-.118a2.8 2.8 0 01.079-.271c.036-.103.08-.206.129-.269a.649.649 0 00.099-.175.374.374 0 00.03-.128c.065.07.117.148.162.23.044.082.08.167.11.246a.542.542 0 00.243.253c.138.079.34.138.622.14.285.003.427-.002.507-.024.08-.02.1-.059.138-.122.036-.063.122-.193.17-.326.044-.13.051-.269-.069-.352.03-.11.07-.256.13-.396a.937.937 0 01.225-.358c.095-.085.224-.166.34-.24.115-.075.214-.143.25-.195.146.083.276.186.371.328a.966.966 0 01.152.566c-.007.131.005.256.02.365.014.107.032.2.04.267.008.066.004.138.001.212a1.25 1.25 0 000 .227.305.305 0 00.118.204c.06.052.14.085.208.076.067-.007.133-.065.183-.14a.516.516 0 00.086-.245.28.28 0 00-.045-.177c-.03-.046-.068-.08-.1-.116-.032-.035-.054-.063-.056-.105-.005-.041.011-.094.05-.181a.311.311 0 00.016-.227.423.423 0 00-.09-.152.592.592 0 01-.09-.25 1.466 1.466 0 01-.013-.414c.02-.142.014-.308-.018-.453-.034-.144-.093-.268-.18-.328.261 0 .56-.002.829-.058.269-.06.511-.176.658-.4-.147-.018-.317-.016-.518-.086-.199-.07-.431-.212-.698-.522.029-.131.038-.219.033-.293a.71.71 0 00-.054-.214c-.03-.079-.072-.154-.095-.269-.023-.116-.025-.276.023-.527.045-.252.06-.658-.023-1.108a3.008 3.008 0 00-.604-1.367c.118-.293.185-.492.209-.656a.782.782 0 00-.062-.44c-.06-.144-.235-.273-.497-.371a3.44 3.44 0 00-1.018-.184c-.41-.02-.993-.03-1.475-.065-.479-.038-.856-.099-.852-.221.007-.12.077-.173.17-.195.093-.023.205-.017.296-.026.133.064.326.103.525.134.2.028.41.043.579.052.171.006.332-.028.502-.066.167-.037.345-.072.55-.063-.169-.062-.378-.155-.596-.225-.22-.07-.443-.12-.638-.096-.065-.07-.112-.123-.19-.147-.079-.026-.187-.026-.37.011a3.09 3.09 0 01-.394.053c-.097.006-.176.006-.291.024-.114.017-.274.026-.407.076-.133.053-.24.147-.25.335a.505.505 0 00.231.481c.188.126.507.214 1.027.238.522.024 1.088.046 1.553.098.466.053.833.136.95.285.116.148.148.242.122.319-.022.076-.101.133-.194.205-.08-.004-.222-.004-.384-.026-.18-.02-.354-.07-.515-.149" clip-rule="evenodd"/><path fill="#FFECB3" fill-rule="evenodd" d="M11.546 14.982c-.016.107-.07.372-.068.43 0 0-.095.003-.14.057-.041.055-.166.07-.213.01 0 0-.105-.084.018-.165.122-.078.291-.313.307-.343.014-.033.114-.098.096.011zm-.566.601c-.018-.004-.043.007-.05.022-.009.02-.009.061.012.066.027.008.054-.022.063-.046.007-.016-.009-.04-.025-.042zM9.969 16.89a.054.054 0 00-.04.011.051.051 0 00-.018.035.049.049 0 00.008.039.052.052 0 00.034.02.058.058 0 00.041-.009.054.054 0 00.023-.034.053.053 0 00-.027-.055.057.057 0 00-.021-.007zm-.258-.264c-.036-.004-.063.004-.065.024-.005.017.02.035.054.042.034.004.064-.007.066-.024.002-.018-.023-.038-.055-.042zm.636-1.478c-.035.077-.043.26-.061.379-.018.115.068.09.11.07.048-.02.192-.252.175-.44-.016-.19-.224-.009-.224-.009zm-.303.989c-.16.054-.061.156-.192.257-.136.1-.061.151-.061.151s.047.147.12.17c.07.025.203-.07.312-.058.108.008.078-.143.092-.228.014-.085-.05-.133-.095-.282-.045-.146-.176-.011-.176-.011zm-1.626-.984c-.007.111.136.052.124-.014-.013-.063.039-.242.039-.242a.31.31 0 00-.163.256zm-.692 1.965c-.03-.004-.057.009-.059.03-.004.018.018.04.045.044.03.005.056-.008.059-.028.004-.02-.016-.042-.045-.046zm.208-.658c-.027.03-.38.413-.466.457-.088.046-.057.118-.02.155.036.037.117-.046.117-.046.08-.23.217-.232.364-.218.147.012.224-.088.229-.241.006-.151-.195-.14-.224-.107zm5.671-2.796c-.001.026.03.048.053.06.013.01.045.008.045-.008 0-.03-.016-.067-.045-.083-.016-.011-.053.011-.053.03zm-.366.168c-.027.018-.038.094-.004.094.05.004.113-.042.115-.088.002-.034-.08-.03-.11-.006zm.066-.232c.016-.011.011-.046-.005-.056-.029-.018-.077-.036-.108-.016-.025.018-.03.074-.002.09.033.02.083.004.115-.017zm1.237-.988c-.057-.01-.068.057-.011.07.1.027.214.042.287.14.054.076.136-.037.054-.094a.85.85 0 00-.33-.116zm.952 1.233c-.043-.007-.118-.074-.118-.074-.035-.103-.067.026-.072.057-.005.03.104.102.174.114.068.01.056-.09.016-.097zm-.005-.289c-.1-.067-.16-.191-.198-.312-.04-.118-.048-.136-.122-.146-.073-.012-.114.152-.128.238-.013.085.069.008.069.008.018-.078.067-.028.09 0 .02.029.127.21.152.28.027.07.24 0 .137-.067zm.306-.86a1.61 1.61 0 01-.468-.375.689.689 0 00-.195-.194c-.052-.03-.1-.04-.172-.066-.072-.024-.214-.067-.362-.142a.914.914 0 01-.386-.343c-.088-.16-.152-.385-.201-.59-.05-.208-.091-.394-.132-.473-.04-.078-.106-.153-.165-.247a.875.875 0 01-.133-.36 5.885 5.885 0 00-.075-.453 1.137 1.137 0 00-.113-.339c-.048-.08-.081-.214-.118-.341-.033-.127-.067-.247-.11-.297a1.667 1.667 0 00-.244-.243c-.112-.092-.247-.173-.383-.184-.136-.013-.316.038-.504.123a2.42 2.42 0 00-.54.345c-.16.136-.34.252-.496.383-.156.129-.287.273-.355.47-.066.194-.16.448-.253.682a7.048 7.048 0 01-.24.549c-.056.107-.174.33-.272.57-.098.239-.18.494-.167.665a.896.896 0 00.023.345c.029.086.086.134.172.116.083-.02.12-.092.158-.16.037-.07.077-.133.174-.133a.338.338 0 01.18.031c.033.02.053.046.099.07.043.024.099.066.153.085.057.022.113.022.16-.037a.264.264 0 01.18-.092.766.766 0 01.19.011c.055.01.113.006.167-.009a.272.272 0 00.147-.13.188.188 0 01.151-.106.256.256 0 01.113.018c.07.092.132.218.175.336.04.12.065.23.056.291-.018.091-.048.18-.088.264a1.36 1.36 0 01-.192.318c-.08.096-.174.232-.183.38-.01.151.067.313.332.464-.005.098-.016.153.015.227.03.072.102.164.263.336.061.06.12.164.168.28.047.114.085.234.104.318.008.028.024.046.042.05.019.005.037-.005.043-.037.032-.088.086-.2.13-.374.042-.175.074-.411.063-.75a.831.831 0 00-.19.076.551.551 0 00-.185.16 3.753 3.753 0 01.029-.5c.023-.178.054-.346.086-.431.033-.088.047-.13.065-.162a.295.295 0 01.084-.096.294.294 0 00.012-.418.686.686 0 01-.139-.194.395.395 0 01-.024-.2c.008-.072.085-.166.241-.251.159-.085.398-.16.736-.186.044-.004.067.013.067.037.002.023-.016.053-.052.073a4.395 4.395 0 00-.18.118 1.57 1.57 0 00-.184.14.37.37 0 00-.102.231c-.004.11.05.241.242.37.193.131.31.201.411.243.102.039.189.05.318.063a3.617 3.617 0 00-.25-.239c-.101-.094-.2-.185-.221-.218-.023-.035-.055-.074-.06-.125-.003-.048.02-.104.107-.17.088-.068.165-.127.226-.18.06-.05.1-.094.12-.124.078.042.204.11.33.17.13.064.256.123.335.147a.952.952 0 01.428.295c.088.123.283.234.51.298.232.063.499.078.73.008a2.699 2.699 0 01-.401-.188z" clip-rule="evenodd"/></g><defs><clipPath id="clip0"><path fill="#fff" d="M0 0h24v24H0z"/></clipPath></defs></svg>